<svg xmlns="http://www.w3.org/2000/svg" >
    <symbol width="24" height="22" viewBox="0 0 24 22" id="pagination-arrow" >
        <path d="M3 10C2.44772 10 2 10.4477 2 11C2 11.5523 2.44772 12 3 12L3 10ZM18.466 11.7071C18.8565 11.3166 18.8565 10.6834 18.466 10.2929L12.102 3.92893C11.7115 3.53841 11.0783 3.53841 10.6878 3.92893C10.2973 4.31946 10.2973 4.95262 10.6878 5.34315L16.3447 11L10.6878 16.6569C10.2973 17.0474 10.2973 17.6805 10.6878 18.0711C11.0783 18.4616 11.7115 18.4616 12.102 18.0711L18.466 11.7071ZM3 12L17.7589 12L17.7589 10L3 10L3 12Z"/>
    </symbol>
    <symbol viewBox="0 0 26 17" id="button-arrow">
        <path d="M0.293015 8.70711C-0.0975094 8.31658 -0.0975094 7.68342 0.293014 7.2929L6.65698 0.928934C7.0475 0.538409 7.68067 0.538409 8.07119 0.928934C8.46171 1.31946 8.46171 1.95262 8.07119 2.34315L2.41434 8L8.07119 13.6569C8.46171 14.0474 8.46171 14.6805 8.07119 15.0711C7.68067 15.4616 7.0475 15.4616 6.65698 15.0711L0.293015 8.70711ZM26 9L1.00012 9L1.00012 7L26 7L26 9Z"/>
    </symbol>
</svg>
